<svg xmlns="http://www.w3.org/2000/svg" width="64" height="64" viewBox="0 0 64 64">
  <line x1="0" y1="0" x2="64" y2="64" stroke="#1d5c38" stroke-width="1.8" stroke-opacity="0.9"/>
  <line x1="64" y1="0" x2="0" y2="64" stroke="#1d5c38" stroke-width="1.8" stroke-opacity="0.9"/>
  <polygon points="32,1 63,32 32,63 1,32" fill="none" stroke="#1d5c38" stroke-width="1.6" stroke-opacity="0.9"/>
  <polygon points="32,16 48,32 32,48 16,32" fill="none" stroke="#1d5c38" stroke-width="1.2" stroke-opacity="0.7"/>
  <circle cx="32" cy="32" r="2.5" fill="#1d5c38" fill-opacity="0.9"/>
  <rect x="0" y="0" width="8" height="8" fill="none" stroke="#1d5c38" stroke-width="1.2" stroke-opacity="0.7"/>
  <rect x="56" y="0" width="8" height="8" fill="none" stroke="#1d5c38" stroke-width="1.2" stroke-opacity="0.7"/>
  <rect x="0" y="56" width="8" height="8" fill="none" stroke="#1d5c38" stroke-width="1.2" stroke-opacity="0.7"/>
  <rect x="56" y="56" width="8" height="8" fill="none" stroke="#1d5c38" stroke-width="1.2" stroke-opacity="0.7"/>
  <circle cx="32" cy="0" r="1.8" fill="#1d5c38" fill-opacity="0.7"/>
  <circle cx="32" cy="64" r="1.8" fill="#1d5c38" fill-opacity="0.7"/>
  <circle cx="0" cy="32" r="1.8" fill="#1d5c38" fill-opacity="0.7"/>
  <circle cx="64" cy="32" r="1.8" fill="#1d5c38" fill-opacity="0.7"/>
  <line x1="0" y1="32" x2="13" y2="32" stroke="#1d5c38" stroke-width="1" stroke-opacity="0.5"/>
  <line x1="51" y1="32" x2="64" y2="32" stroke="#1d5c38" stroke-width="1" stroke-opacity="0.5"/>
  <line x1="32" y1="0" x2="32" y2="13" stroke="#1d5c38" stroke-width="1" stroke-opacity="0.5"/>
  <line x1="32" y1="51" x2="32" y2="64" stroke="#1d5c38" stroke-width="1" stroke-opacity="0.5"/>
</svg>
